<?xml version="1.0" encoding="UTF-8"?>
<svg width="450px" height="72px" viewBox="0 0 450 72" version="1.1" xmlns="http://www.w3.org/2000/svg" xmlns:xlink="http://www.w3.org/1999/xlink">
    <!-- Generator: Sketch 50.2 (55047) - http://www.bohemiancoding.com/sketch -->
    <title>tanka-logo</title>
    <desc>Created with Sketch.</desc>
    <defs></defs>
    <g id="tanka-logo" stroke="none" stroke-width="1" fill="none" fill-rule="evenodd">
        <path d="M75,0 L75,16.0267903 L48.3139136,16.1418798 L48.3139136,72 L26.2798884,72 L26.2798884,16.1418798 L0,16.1418798 L0,0.115089514 L75,0 Z M231.026141,0 L253,0 L253,72 L232.936135,72 L199.973859,32.8545395 L199.973859,72 L178,72 L178,0 L198.799165,0 L231.026141,38.0577286 L231.026141,0 Z M271.875,0 L293.987807,0 L294.049519,28.6184185 L319.494734,0.00292873414 L346.659558,0.00292873414 L318.042146,31.8037097 L353.125,72 L326.714359,72 L302.412582,45.3672633 L293.987807,55.2704849 L293.987807,72 L271.875,72 L271.875,0 Z M386.773014,0 L414.174083,0 L450,72 L425.399272,72 L419.810197,60.9243273 L390.221515,60.9243273 L384.74179,72 L359.375,72 L391.540436,10.2600044 L386.773014,0 Z M405.126122,29.911515 L397.207706,44.9668363 L412.76536,44.9668363 L405.126122,29.911515 Z M102.398014,0 L129.799083,0 L165.625,72 L141.024272,72 L135.434586,60.9243273 L105.846515,60.9243273 L100.366179,72 L75,72 L107.166047,10.2600044 L102.398014,0 Z M120.750511,29.911515 L112.832706,44.9668363 L128.39036,44.9668363 L120.750511,29.911515 Z" id="logo" fill="#000000"></path>
    </g>
</svg>